<svg xmlns="http://www.w3.org/2000/svg" viewBox="0 0 233.56 133.32"><title>Suzuki Hayabusa logo</title><path d="M472.28,463a77.06,77.06,0,0,0,14.77-3.12,59.12,59.12,0,0,0,6.87-3.08,1.88,1.88,0,0,0,.87-2.6c-.45-1-4.93-5.66-6.45-7.3a2.7,2.7,0,0,0-1.15-.67c-1.34-.24-3.94-.88-3.94-.88s1,2.93,1.15,3.94-.07,1.44-1,2.58c-.72.84-8.46,9.7-11.07,11.13" transform="translate(-395.22 -445.34)" style="fill:#656a73"/><path d="M424,555.47c-7.13,7.61-18.13,18.06-24.22,23.2,16.48-8.39,43-25.41,46.83-28.74s4.37-4.6,5.86-9.73c1.31-4.51,5.69-16.78,7.7-22,10.77-.66,24.37-.59,31-.28,8.41.39,23.4,2.38,25.67,2.66s2.18-1.85.51-3.4c-1.43-1.55-11.56-8.22-13.29-9.11s-1.79-.93-4.5-.44a117.39,117.39,0,0,1-11.94,1.84c-5.32.56-13.53.63-18.38,1l-6.05.42a12.42,12.42,0,0,1,1.49-2.49,24.52,24.52,0,0,1,4.77-4.43,156.8,156.8,0,0,1,22-.38c4.43-.47,12.17-1.18,13.76-1.38s2.18-1.15,1.24-2.3c-1.1-1.11-8.44-7.52-8.94-7.82s-.64-.32-1.62.05a100.73,100.73,0,0,1-10.43,2.61c-3.93.79-4.08.82-16.8,2a67.68,67.68,0,0,1,11.16-4.26c2.59-.71,3.06-.7,5.31-2.58s4.39-4.32,2.57-4.44-13,1.1-13,1.1a123.36,123.36,0,0,1,11.64-5.07c4.66-1.59,8-2.12,9.11-2.51s1.74-.39,1.42-1.24-2.77-4.4-3.68-4.49c-1.32-.12.61-.24-12.81,1.11,0,0,13.66-3.75,19.17-4.68s10.75-1.78,12.11-2.05,1.27-.65-.51-1.9a37.57,37.57,0,0,0-6.6-3.33c-1-.35-3.7-.09-7.68.43s-17.29,1.72-19.81,2.1c-2.11.32-6.49.54-7.89.6,1.4-1.94,2.85-4.61,1.36-6.74-1.23-1.62-3.2-3.84-4.38-5.35s-2.39-3.14-2.93-4a5.24,5.24,0,0,0-2.64-2.11c-1.12-.37-3.8-.88-5.7-1.39,0,.18.78,2.27,1.17,3.7a38,38,0,0,1,1,7.61,13.91,13.91,0,0,1-2.17,6.18c-.19.27-.53.68-1,1.19-8.12,9.08-23.72,25.33-37,35.08a163.27,163.27,0,0,0,24.48-11.08,52.3,52.3,0,0,1-2.42,6.74c-1.41,3.14-8.36,10.2-10.66,12.48-.31.31-.06.56.76.45l6.07-.77c1.29-.16,5.1-1.09,6-1.9.35-.33.83-.83,1.37-1.41.77.39,2,.84,3,1.42a6.73,6.73,0,0,0,4.66.86,156.55,156.55,0,0,1,16-2.25c-2.76.77-5.49,1.61-6.32,2a11.27,11.27,0,0,0-3.27,2.12,23.84,23.84,0,0,0-2.28,3.17c-10.16.74-25.72,2.25-30.53,2.76a28.94,28.94,0,0,1-10.94-.8c3.48-2.45,8.72-4.81,14.11-6.84-6,1.12-18.4,4.6-21.21,5.54a26.22,26.22,0,0,0-5.18,2,29.12,29.12,0,0,0-4.47,3.3c-1.29,1.19-1.48,2.26.7,3.43s10.61,5.94,12,6.75a4.32,4.32,0,0,0,4.59.53,166.68,166.68,0,0,1,36-8.87c-3.35,5.42-7,11.42-8.76,14.48A115.5,115.5,0,0,1,424,555.47m23.49-56.68c1.71-1.8,5.35-9,6.13-11.15S456.2,479,456.2,479l5.06-5,14.87-2.64L474.9,473s-8.61,2-14.79,3.78a.5.5,0,0,0-.25.86c1.52,1.77,4.24,4.67,4.41,4.8a.65.65,0,0,0,.54.15c.26,0,4.83-.9,4.83-.9s-5.74,2.34-7.75,3.32-2.26,1.48-2.06,2.15,1.27,3.35,1.51,3.85.49.68,1.22.7a13.77,13.77,0,0,0,2.11-.24l-1.49,2.08-17.1,6.86c.53-.59,1-1.14,1.44-1.57" transform="translate(-395.22 -445.34)" style="fill:#656a73"/><path d="M606.94,540.42l-16.33,1.1-.17.06L588,543.25l0,.08,7.8,2.29v0l-9.67.55,0-.06,1.13-2,0,0-3.43,2.17-5.6.16,0,0,7.21-5.42,0,0-6.86.43-.16.06-5.34,4.67-5.84.38,0,0,6.63-5.06,0,0-9.44.4v0l3.48,1,0,.08-6.53,4.51v.1l2.39,1.26.18,0,7.48-.75,3.53.72a1,1,0,0,0,.35,0l6.24-.91-1.42.9,0,0L598.68,547l.16-.06,2-1.58,0-.09-8.18-2.6v0l9.77,0c.14,0,.15,0,.2,0l4.37-2.18Z" transform="translate(-395.22 -445.34)" style="fill:#656a73"/><path d="M491.53,540l79.71-5c.19,0,.2,0,0,0-8.94.22-72.14,1.76-76.21,1.87,2.25-1.49,6.11-4.26,6.11-4.26l14.75-3.93s.14-.05,0,0c-2,.15-16.75,1.26-20.53,1.49l-.29.11c-2.88,2.25-8.09,6.81-8.09,6.81l-6.77.16s5-5.62,6.16-6.73l0-.06c-2.19.06-4.81.17-7.12.27a.31.31,0,0,0-.22.09c-1.26,1.66-4.8,6.68-4.8,6.68l-8.08.11-.89,0c-1.38,0-1.4.25-.3.79a38.22,38.22,0,0,1,6,4.11c-.78,1.33-1.86,3.06-1.94,3.2a.27.27,0,0,0,0,.29l1.47,3.61h.11c.38-.5,2.17-2.84,2.84-3.76a24.34,24.34,0,0,1,4.2,7h.15l.27-.24c2.38-2.37,9.78-9.73,13.58-12.65m-15.58,2.33,1.23-1.44,6.55-.59c-1.29,1.2-4.72,4.88-4.72,4.88Z" transform="translate(-395.22 -445.34)" style="fill:#656a73"/><path d="M628.77,544.62l-11.41.83,0-.06,5.26-4.67,0-.05s-10.66.75-11,.79a8.22,8.22,0,0,0-1.13.19c-.44.11-4.09,1.26-4.46,1.42a4.82,4.82,0,0,0-.83.43c-.28.17-5,3.33-5,3.33v.09l2.1,1,.17,0,7.52-1.16c1,.26,3.7,1,4,1.09a1.24,1.24,0,0,0,.81,0c.31-.09,14-3.24,14-3.26Zm-16.88.66-5.37.27,0,0,4.07-2.33a1.72,1.72,0,0,1,.53-.18l5.08-.57Z" transform="translate(-395.22 -445.34)" style="fill:#656a73"/><path d="M564.23,543.31l-4.74-1.42h-.19l-5.68.57,5.26-4.62,0,0-13.38.91v.06l5.61.73,0,.07L543.9,546l-4.27.19,0-.06,5.25-4.67,0-.05s-10.66.75-11,.78a9.13,9.13,0,0,0-1.13.2c-.44.11-4.09,1.26-4.46,1.42a4.68,4.68,0,0,0-.82.43c-.28.17-5,3.33-5,3.33v.09l0,0-5,.65,0,0,7.5-5.65.16-.08,5-1.77v0l-10.25.83-.16.06-4.29,3.82-.16.07-4,.33,0-.05,4.39-4,0-.05-4.89.27-.16.06L507,546l-4,.18,0-.06,5.25-4.67,0-.05s-10.66.75-11,.78a8.82,8.82,0,0,0-1.13.2c-.44.11-4.09,1.26-4.46,1.42a4.71,4.71,0,0,0-.82.43c-.28.17-5,3.33-5,3.33v.09l2.1,1,.17,0,7.52-1.16c1,.26,3.7,1,4,1.09a1.24,1.24,0,0,0,.81,0l5.6-1.51-1.37,1.53,0,0,9.17-1.42,0,0-6.43,6.11,0,0,16.19-5.22.87.43.17,0,7.52-1.16c1,.26,3.7,1,4,1.09a1.24,1.24,0,0,0,.81,0l5.33-1.3-1.48,1.31,0,.05,17-1.31.17-.06,6.17-3.91ZM497.54,546l-5.37.27,0,0,4.07-2.33a1.82,1.82,0,0,1,.52-.18l5.08-.57Zm36.62,0-5.37.27,0,0,4.07-2.33a1.8,1.8,0,0,1,.52-.18l5.09-.57Zm23.68-2.53-2.75,2.2-.16.06-6.26.61,2.78-2.23,6.36-.7Z" transform="translate(-395.22 -445.34)" style="fill:#656a73"/></svg>