<?xml version="1.0" encoding="utf-8"?>
<!-- Generator: Adobe Illustrator 26.0.2, SVG Export Plug-In . SVG Version: 6.00 Build 0)  -->
<svg version="1.1" id="Layer_1" xmlns="http://www.w3.org/2000/svg" xmlns:xlink="http://www.w3.org/1999/xlink" x="0px" y="0px"
	 viewBox="0 0 1000 277.2" style="enable-background:new 0 0 1000 277.2;" xml:space="preserve">
<style type="text/css">
	.st0{fill-rule:evenodd;clip-rule:evenodd;fill:url(#SVGID_1_);}
</style>
<g id="Logo_43_">
	<linearGradient id="SVGID_1_" gradientUnits="userSpaceOnUse" x1="0" y1="138.593" x2="1000" y2="138.593">
		<stop  offset="0" style="stop-color:#DF4D57"/>
		<stop  offset="1" style="stop-color:#8A298A"/>
	</linearGradient>
	<path class="st0" d="M952.2,103.4c-9.2,4.3-18.8,7.6-28.7,9.8l-16.9,3.7c-8.8,2.5-15.2,5.8-19.1,9.7c-3.3,4.9-5,10.6-5.2,16.5
		c-0.3,6.6,2.1,13.1,6.6,18c4.4,4,10.8,6,19.1,6c13.7,0,24.5-4,32.4-12c7.8-8,11.8-19,11.8-33V103.4L952.2,103.4L952.2,103.4z
		 M964,195.5c-10.2,5.4-21.3,8.8-32.7,10.1c-10.1,1.2-20.3,1.8-30.6,1.9c-16.6,0.3-32.9-4.8-46.3-14.6
		c-13.2-9.8-19.9-25.8-19.9-48.4c0-21,6.1-35.9,18-44.9c12-9,27.4-15,46-18c3-0.1,5.9-0.5,8.8-1.1c3.9-0.8,7.8-1.4,11.8-1.9
		c21.6-3,32.4-9.5,32.4-19.5c0-7.5-3.8-12.4-11.4-14.6c-6.8-2.1-13.8-3.3-20.9-3.4c-6.3-0.1-12.5,0.9-18.4,3c-5.3,2-9.6,6-11.8,11.2
		h-49.3c1.6-14.9,9-28.6,20.6-38.2C873.5,5.8,892.4,0,916.9,0c27.5,0,48.1,4.7,61.8,14.2c14.2,10,21.4,24,21.4,41.9v68.2
		c0,20-3.6,35.6-10.7,46.8C983.3,181.5,974.5,189.9,964,195.5z M723.6,203.7v-96.6c0-19.5,2.8-35.8,8.4-49.1
		c5-12.4,13-23.3,23.2-31.8c9.7-7.7,20.8-13.3,32.7-16.5c12.6-3.5,25.6-5.3,38.6-5.2h7.3v53.2h-16.9c-14.3,0-24.8,3.5-31.6,10.5
		c-6.9,7-10.3,18-10.3,33v102.6L723.6,203.7L723.6,203.7z M668.4,103.4c-9.2,4.3-18.8,7.6-28.6,9.8l-16.9,3.7
		c-8.8,2.5-15.2,5.8-19.1,9.7c-3.2,4.9-5,10.6-5.2,16.5c-0.3,6.6,2.1,13.1,6.7,18c4.4,4,10.8,6,19.1,6c13.7,0,24.5-4,32.4-12
		c7.8-8,11.8-19,11.8-33L668.4,103.4L668.4,103.4L668.4,103.4z M680.1,195.5c-10.2,5.4-21.3,8.8-32.7,10.1
		c-10.1,1.2-20.3,1.8-30.5,1.9c-16.6,0.3-32.9-4.8-46.3-14.6c-13.3-9.8-19.9-25.8-19.9-48.4c0-21,6-35.9,18-44.9
		c12.1-9,27.3-15,46-18c3-0.1,5.9-0.5,8.8-1.1c3.9-0.8,7.8-1.4,11.8-1.9c21.6-3,32.4-9.5,32.4-19.5c0-7.5-3.8-12.4-11.4-14.6
		c-6.8-2.1-13.9-3.3-21-3.4c-6.2-0.1-12.5,0.9-18.4,3c-5.3,1.9-9.6,6-11.7,11.2h-49.3c1.7-14.9,9-28.6,20.6-38.2
		C589.8,5.8,608.6,0,633.1,0c27.5,0,48.1,4.7,61.8,14.2c14.2,10,21.3,24,21.3,41.9v68.2c0,20-3.6,35.6-10.7,46.8
		C699.4,181.4,690.6,189.9,680.1,195.5L680.1,195.5z M495.5,104.9c0-19.5-3.7-34.4-11-44.9c-7.3-10.5-17.9-15.7-31.6-15.7
		c-12.3-0.5-24,5.5-30.9,15.8c-6.9,9.5-10.3,24.5-10.3,45c0,18.9,3.7,33.2,11,42.7c7.4,10.5,17.9,15.7,31.7,15.7
		c12.1,0.3,23.5-5.6,30.2-15.7C491.9,137.1,495.5,122.9,495.5,104.9L495.5,104.9z M411.8,251.7c0.1,6.7-2.6,13.2-7.4,17.9
		c-4.6,4.9-11,7.6-17.7,7.5h-25V90.6c0-34.9,10-58.8,30.1-71.5C411.4,6.6,434.2-0.1,457.4,0c12.7,0.1,25.3,2.5,37.1,7.1
		c11.6,4.1,21.8,11.2,29.7,20.6c14.7,19.5,22.1,44.5,22.1,74.9c0,31.5-7.4,56.9-22.1,76.4c-14.7,19-33.6,28.5-56.6,28.5
		c-11.2,0.3-22.2-2.1-32.4-6.8c-10-5.2-18.2-13.3-23.5-23.2L411.8,251.7L411.8,251.7L411.8,251.7z M306.6,103.4
		c-9.2,4.3-18.8,7.6-28.7,9.8l-16.9,3.7c-8.8,2.5-15.2,5.8-19.1,9.7c-3.2,4.9-5,10.6-5.2,16.5c-0.3,6.6,2.1,13.1,6.6,18
		c4.4,4,10.8,6,19.1,6c13.7,0,24.5-4,32.4-12c7.8-7.9,11.7-18.9,11.8-32.9L306.6,103.4L306.6,103.4z M318.4,195.5
		c-10.2,5.4-21.3,8.8-32.7,10.1c-10.1,1.2-20.3,1.8-30.5,1.9c-16.6,0.3-32.9-4.8-46.3-14.6c-13.3-9.8-19.9-25.8-19.9-48.4
		c0-21,6-35.9,18-44.9c12-9,27.3-15,46-18c3-0.1,5.9-0.5,8.8-1.1c3.4-0.7,7.4-1.4,11.7-1.9c21.6-3,32.4-9.5,32.4-19.5
		c0-7.5-3.8-12.4-11.4-14.6c-6.8-2.1-13.9-3.3-21-3.4c-6.2-0.1-12.5,0.9-18.3,3c-5.3,1.9-9.6,6-11.8,11.2h-49.3
		c1.7-14.9,9-28.6,20.6-38.2C227.9,5.8,246.8,0,271.3,0c27.4,0,48.1,4.7,61.7,14.2c14.2,10,21.3,24,21.3,42v68.2
		c0,20-3.6,35.6-10.7,46.8C337.7,181.5,328.9,189.9,318.4,195.5L318.4,195.5z M50,251.7c0.1,6.7-2.5,13.2-7.3,17.9
		c-4.6,4.8-11,7.6-17.7,7.5H0V90.6c0-34.9,10.1-58.8,30.2-71.5C49.7,6.6,72.4-0.1,95.6,0c12.7,0.1,25.3,2.5,37.1,7.1
		c11.6,4.1,21.9,11.2,29.8,20.6c14.7,19.5,22.1,44.5,22.1,74.9c0,31.5-7.4,56.9-22.1,76.4c-14.7,19-33.6,28.5-56.7,28.5
		c-11.2,0.2-22.2-2.1-32.4-6.8c-10-5.2-18.2-13.3-23.5-23.2L50,251.7L50,251.7z M133.8,104.9c0-19.5-3.7-34.4-11.1-44.9
		c-7.3-10.5-17.8-15.7-31.6-15.7c-12.3-0.4-24,5.5-30.9,15.8c-6.9,9.5-10.3,24.5-10.3,45c0,18.9,3.7,33.2,11,42.7
		c7.3,10.5,17.9,15.8,31.6,15.8c12.1,0.3,23.5-5.6,30.1-15.8C130.1,137.1,133.8,122.9,133.8,104.9L133.8,104.9z"/>
</g>
</svg>
